FILE "Tomb Raider II - The Golden Mask (USA) (Expansion).bin" BINARY
  TRACK 01 MODE2/2352
    INDEX 01 00:00:00
  TRACK 02 AUDIO
    PREGAP 00:02:00
    INDEX 01 14:36:22
  TRACK 03 AUDIO
    INDEX 00 14:46:23
    INDEX 01 14:48:23
  TRACK 04 AUDIO
    INDEX 00 14:58:24
    INDEX 01 15:00:24
  TRACK 05 AUDIO
    INDEX 00 15:10:25
    INDEX 01 15:12:25
  TRACK 06 AUDIO
    INDEX 00 15:22:10
    INDEX 01 15:24:10
  TRACK 07 AUDIO
    INDEX 00 15:33:07
    INDEX 01 15:35:07
  TRACK 08 AUDIO
    INDEX 00 15:42:08
    INDEX 01 15:44:08
  TRACK 09 AUDIO
    INDEX 00 15:51:10
    INDEX 01 15:53:10
  TRACK 10 AUDIO
    INDEX 00 16:01:10
    INDEX 01 16:03:10
  TRACK 11 AUDIO
    INDEX 00 16:16:34
    INDEX 01 16:18:34
  TRACK 12 AUDIO
    INDEX 00 16:36:19
    INDEX 01 16:38:19
  TRACK 13 AUDIO
    INDEX 00 16:48:57
    INDEX 01 16:50:57
  TRACK 14 AUDIO
    INDEX 00 17:01:66
    INDEX 01 17:03:66
  TRACK 15 AUDIO
    INDEX 00 17:10:67
    INDEX 01 17:12:67
  TRACK 16 AUDIO
    INDEX 00 17:19:68
    INDEX 01 17:21:68
  TRACK 17 AUDIO
    INDEX 00 17:28:70
    INDEX 01 17:30:70
  TRACK 18 AUDIO
    INDEX 00 17:41:72
    INDEX 01 17:43:72
  TRACK 19 AUDIO
    INDEX 00 17:50:73
    INDEX 01 17:52:73
  TRACK 20 AUDIO
    INDEX 00 17:59:74
    INDEX 01 18:01:74
  TRACK 21 AUDIO
    INDEX 00 18:09:00
    INDEX 01 18:11:00
  TRACK 22 AUDIO
    INDEX 00 18:18:01
    INDEX 01 18:20:01
  TRACK 23 AUDIO
    INDEX 00 18:27:02
    INDEX 01 18:29:02
  TRACK 24 AUDIO
    INDEX 00 18:39:03
    INDEX 01 18:41:03
  TRACK 25 AUDIO
    INDEX 00 18:51:04
    INDEX 01 18:53:04
  TRACK 26 AUDIO
    INDEX 00 19:00:05
    INDEX 01 19:02:05
  TRACK 27 AUDIO
    INDEX 00 19:12:06
    INDEX 01 19:14:06
  TRACK 28 AUDIO
    INDEX 00 21:14:17
    INDEX 01 21:16:17
  TRACK 29 AUDIO
    INDEX 00 21:26:18
    INDEX 01 21:28:18
  TRACK 30 AUDIO
    INDEX 00 24:16:52
    INDEX 01 24:18:52
  TRACK 31 AUDIO
    INDEX 00 27:24:37
    INDEX 01 27:26:37
  TRACK 32 AUDIO
    INDEX 00 27:36:19
    INDEX 01 27:38:19
  TRACK 33 AUDIO
    INDEX 00 27:44:67
    INDEX 01 27:46:67
  TRACK 34 AUDIO
    INDEX 00 28:05:27
    INDEX 01 28:07:27
  TRACK 35 AUDIO
    INDEX 00 29:03:61
    INDEX 01 29:05:61
  TRACK 36 AUDIO
    INDEX 00 29:27:52
    INDEX 01 29:29:52
  TRACK 37 AUDIO
    INDEX 00 32:10:46
    INDEX 01 32:12:46
  TRACK 38 AUDIO
    INDEX 00 32:26:59
    INDEX 01 32:28:59
  TRACK 39 AUDIO
    INDEX 00 32:42:16
    INDEX 01 32:44:16
  TRACK 40 AUDIO
    INDEX 00 33:01:04
    INDEX 01 33:03:04
  TRACK 41 AUDIO
    INDEX 00 33:22:67
    INDEX 01 33:24:67
  TRACK 42 AUDIO
    INDEX 00 34:25:73
    INDEX 01 34:27:73
  TRACK 43 AUDIO
    INDEX 00 35:03:28
    INDEX 01 35:05:28
  TRACK 44 AUDIO
    INDEX 00 35:11:57
    INDEX 01 35:13:57
  TRACK 45 AUDIO
    INDEX 00 35:29:56
    INDEX 01 35:31:56
  TRACK 46 AUDIO
    INDEX 00 35:43:54
    INDEX 01 35:45:54
  TRACK 47 AUDIO
    INDEX 00 36:00:06
    INDEX 01 36:02:06
  TRACK 48 AUDIO
    INDEX 00 36:12:39
    INDEX 01 36:14:39
  TRACK 49 AUDIO
    INDEX 00 38:59:47
    INDEX 01 39:01:47
  TRACK 50 AUDIO
    INDEX 00 40:14:72
    INDEX 01 40:16:72
  TRACK 51 AUDIO
    INDEX 00 40:26:44
    INDEX 01 40:28:44
  TRACK 52 AUDIO
    INDEX 00 41:12:52
    INDEX 01 41:14:52
  TRACK 53 AUDIO
    INDEX 00 41:26:37
    INDEX 01 41:28:37
  TRACK 54 AUDIO
    INDEX 00 42:19:43
    INDEX 01 42:21:43
  TRACK 55 AUDIO
    INDEX 00 45:53:12
    INDEX 01 45:55:12
  TRACK 56 AUDIO
    INDEX 00 49:26:69
    INDEX 01 49:28:69
  TRACK 57 AUDIO
    INDEX 00 51:16:47
    INDEX 01 51:18:47
  TRACK 58 AUDIO
    INDEX 00 51:44:17
    INDEX 01 51:46:17
  TRACK 59 AUDIO
    INDEX 00 51:56:18
    INDEX 01 51:58:18
  TRACK 60 AUDIO
    INDEX 00 52:17:72
    INDEX 01 52:19:72
  TRACK 61 AUDIO
    INDEX 00 55:08:44
    INDEX 01 55:10:44
